<svg width="126" height="36" viewBox="0 0 126 36" fill="none" xmlns="http://www.w3.org/2000/svg">
<path d="M16.896 19.64C16.4907 18.8933 15.904 18.328 15.136 17.944C14.3893 17.5387 13.504 17.336 12.48 17.336C10.7093 17.336 9.29067 17.9227 8.224 19.096C7.15733 20.248 6.624 21.7947 6.624 23.736C6.624 25.8053 7.17867 27.4267 8.288 28.6C9.41867 29.752 10.9653 30.328 12.928 30.328C14.272 30.328 15.4027 29.9867 16.32 29.304C17.2587 28.6213 17.9413 27.64 18.368 26.36H11.424V22.328H23.328V27.416C22.9227 28.7813 22.2293 30.0507 21.248 31.224C20.288 32.3973 19.0613 33.3467 17.568 34.072C16.0747 34.7973 14.3893 35.16 12.512 35.16C10.2933 35.16 8.30933 34.68 6.56 33.72C4.832 32.7387 3.47733 31.384 2.496 29.656C1.536 27.928 1.056 25.9547 1.056 23.736C1.056 21.5173 1.536 19.544 2.496 17.816C3.47733 16.0667 4.832 14.712 6.56 13.752C8.288 12.7707 10.2613 12.28 12.48 12.28C15.168 12.28 17.4293 12.9307 19.264 14.232C21.12 15.5333 22.3467 17.336 22.944 19.64H16.896ZM31.831 20.12C32.471 19.1387 33.271 18.3707 34.231 17.816C35.191 17.24 36.2577 16.952 37.431 16.952V22.744H35.927C34.5617 22.744 33.5377 23.0427 32.855 23.64C32.1723 24.216 31.831 25.24 31.831 26.712V35H26.359V17.144H31.831V20.12ZM56.8785 25.784C56.8785 26.296 56.8465 26.8293 56.7825 27.384H44.3985C44.4838 28.4933 44.8358 29.3467 45.4545 29.944C46.0945 30.52 46.8732 30.808 47.7905 30.808C49.1558 30.808 50.1052 30.232 50.6385 29.08H56.4625C56.1638 30.2533 55.6198 31.3093 54.8305 32.248C54.0625 33.1867 53.0918 33.9227 51.9185 34.456C50.7452 34.9893 49.4332 35.256 47.9825 35.256C46.2332 35.256 44.6758 34.8827 43.3105 34.136C41.9452 33.3893 40.8785 32.3227 40.1105 30.936C39.3425 29.5493 38.9585 27.928 38.9585 26.072C38.9585 24.216 39.3318 22.5947 40.0785 21.208C40.8465 19.8213 41.9132 18.7547 43.2785 18.008C44.6438 17.2613 46.2118 16.888 47.9825 16.888C49.7105 16.888 51.2465 17.2507 52.5905 17.976C53.9345 18.7013 54.9798 19.736 55.7265 21.08C56.4945 22.424 56.8785 23.992 56.8785 25.784ZM51.2785 24.344C51.2785 23.4053 50.9585 22.6587 50.3185 22.104C49.6785 21.5493 48.8785 21.272 47.9185 21.272C47.0012 21.272 46.2225 21.5387 45.5825 22.072C44.9638 22.6053 44.5798 23.3627 44.4305 24.344H51.2785ZM76.5972 25.784C76.5972 26.296 76.5653 26.8293 76.5013 27.384H64.1173C64.2026 28.4933 64.5546 29.3467 65.1733 29.944C65.8133 30.52 66.5919 30.808 67.5093 30.808C68.8746 30.808 69.8239 30.232 70.3573 29.08H76.1813C75.8826 30.2533 75.3386 31.3093 74.5493 32.248C73.7813 33.1867 72.8106 33.9227 71.6373 34.456C70.4639 34.9893 69.1519 35.256 67.7013 35.256C65.9519 35.256 64.3946 34.8827 63.0293 34.136C61.6639 33.3893 60.5973 32.3227 59.8293 30.936C59.0613 29.5493 58.6773 27.928 58.6773 26.072C58.6773 24.216 59.0506 22.5947 59.7973 21.208C60.5653 19.8213 61.6319 18.7547 62.9973 18.008C64.3626 17.2613 65.9306 16.888 67.7013 16.888C69.4293 16.888 70.9653 17.2507 72.3093 17.976C73.6533 18.7013 74.6986 19.736 75.4453 21.08C76.2133 22.424 76.5972 23.992 76.5972 25.784ZM70.9973 24.344C70.9973 23.4053 70.6773 22.6587 70.0373 22.104C69.3973 21.5493 68.5973 21.272 67.6373 21.272C66.7199 21.272 65.9413 21.5387 65.3013 22.072C64.6826 22.6053 64.2986 23.3627 64.1493 24.344H70.9973ZM90.364 16.952C92.4547 16.952 94.1187 17.6347 95.356 19C96.6147 20.344 97.244 22.2 97.244 24.568V35H91.804V25.304C91.804 24.1093 91.4947 23.1813 90.876 22.52C90.2573 21.8587 89.4253 21.528 88.38 21.528C87.3347 21.528 86.5027 21.8587 85.884 22.52C85.2653 23.1813 84.956 24.1093 84.956 25.304V35H79.484V17.144H84.956V19.512C85.5107 18.7227 86.2573 18.104 87.196 17.656C88.1347 17.1867 89.1907 16.952 90.364 16.952Z" fill="#FAF4F4"/>
<path d="M102.368 11.7368L115 9L110.263 19.9474L100.038 21.8355L102.368 11.7368Z" fill="#33FD00"/>
<path d="M100 22L100.038 21.8355M115 9C110.067 10.0688 102.368 11.7368 102.368 11.7368C102.368 11.7368 100.948 17.8917 100.038 21.8355M115 9L110.263 19.9474L100.038 21.8355M115 9L100.038 21.8355" stroke="black" stroke-opacity="0.6"/>
</svg>
